<?xml version="1.0" standalone="no"?>
<!DOCTYPE svg PUBLIC "-//W3C//DTD SVG 20010904//EN"
 "http://www.w3.org/TR/2001/REC-SVG-20010904/DTD/svg10.dtd">
<svg version="1.0" xmlns="http://www.w3.org/2000/svg"
 width="64" height="32" viewBox="0 0 186.000000 60.000000"
 preserveAspectRatio="xMidYMid meet">

<g transform="translate(0.000000,60.000000) scale(0.100000,-0.100000)"
fill="#000000" stroke="none">
<path fill="#DE0012" d="M191 584 c-68 -24 -116 -61 -155 -118 -48 -68 -45 -79 6 -29 50 49
102 73 155 73 76 0 112 -18 199 -102 46 -44 84 -84 84 -88 0 -4 -16 -11 -35
-17 -30 -10 -38 -8 -61 9 l-26 21 -49 -49 c-27 -26 -49 -52 -49 -56 0 -16 61
-38 104 -38 52 0 109 38 163 109 43 56 44 100 3 164 -70 111 -217 163 -339
121z"/>
<path d="M671 518 c-17 -46 -21 -78 -11 -78 5 0 10 -13 10 -30 0 -28 3 -30 35
-30 l35 0 -2 80 -1 80 -29 0 c-20 0 -31 -6 -37 -22z"/>
<path d="M787 533 c-4 -3 -7 -19 -7 -35 0 -18 -5 -28 -15 -28 -8 0 -15 -5 -15
-11 0 -6 7 -9 15 -5 12 4 15 -3 15 -34 l0 -40 60 0 c33 0 60 4 60 10 0 6 -11
10 -25 10 -21 0 -25 5 -25 30 0 20 6 33 18 36 43 14 46 18 15 22 -27 3 -33 8
-33 28 0 20 -5 24 -28 24 -16 0 -32 -3 -35 -7z"/>
<path d="M1290 510 c0 -17 -5 -30 -12 -30 -9 0 -9 -3 0 -12 16 -16 15 -85 0
-91 -10 -4 -10 -8 1 -15 9 -6 12 -24 9 -51 l-4 -41 38 0 38 0 1 55 c1 30 1 78
1 105 0 115 2 110 -37 110 -32 0 -35 -2 -35 -30z"/>
<path d="M1430 520 c0 -15 -7 -20 -25 -20 -14 0 -25 -4 -25 -10 0 -5 11 -10
25 -10 20 0 25 -5 25 -25 0 -18 -5 -25 -20 -25 -11 0 -20 -4 -20 -10 0 -5 20
-10 45 -10 25 0 45 -4 45 -9 0 -15 -18 -23 -25 -11 -9 15 -65 12 -65 -3 0 -7
7 -23 16 -35 14 -20 14 -24 -5 -51 -12 -16 -21 -32 -21 -35 0 -11 56 -6 68 6
9 9 15 9 24 0 12 -12 68 -17 68 -6 0 3 -10 19 -21 36 l-21 29 21 23 c28 30 29
76 1 76 -15 0 -20 7 -20 25 0 18 5 25 20 25 11 0 20 5 20 10 0 6 -9 10 -20 10
-13 0 -20 7 -20 20 0 16 -7 20 -35 20 -28 0 -35 -4 -35 -20z"/>
<path d="M1697 533 c-4 -3 -7 -17 -7 -30 0 -21 -5 -23 -45 -23 -25 0 -45 -4
-45 -10 0 -5 20 -10 45 -10 l44 0 3 -97 3 -98 33 -3 32 -3 0 100 0 101 44 0
c61 0 68 18 9 22 -44 3 -48 5 -51 31 -3 22 -8 27 -31 27 -15 0 -31 -3 -34 -7z"/>
<path d="M1780 516 c0 -22 4 -26 31 -26 26 0 30 3 27 23 -2 16 -11 23 -30 25
-24 3 -28 0 -28 -22z"/>
<path d="M979 521 c13 -9 10 -55 -6 -98 -5 -14 0 -15 40 -10 29 4 47 3 47 -3
0 -6 -11 -10 -25 -10 -16 0 -25 -6 -25 -15 0 -8 -7 -15 -15 -15 -8 0 -15 -4
-15 -10 0 -5 7 -10 15 -10 10 0 15 -10 15 -30 0 -23 -4 -30 -20 -30 -11 0 -20
-3 -20 -7 0 -5 47 -8 105 -9 101 0 105 1 105 21 0 16 6 21 23 21 21 -1 22 2
25 107 l3 107 -56 0 -55 0 0 -115 0 -115 -25 0 c-20 0 -25 5 -25 25 0 16 6 25
15 25 8 0 15 5 15 10 0 6 -7 10 -15 10 -8 0 -15 9 -15 20 0 13 7 20 20 20 17
0 20 7 20 40 0 38 -2 40 -31 40 -39 0 -34 22 7 31 18 4 1 7 -46 8 -46 0 -70
-3 -61 -8z m208 -73 c-2 -13 -4 -3 -4 22 0 25 2 35 4 23 2 -13 2 -33 0 -45z
m-127 7 c0 -8 -4 -15 -10 -15 -5 0 -10 7 -10 15 0 8 5 15 10 15 6 0 10 -7 10
-15z m127 -107 c-2 -13 -4 -3 -4 22 0 25 2 35 4 23 2 -13 2 -33 0 -45z"/>
<path d="M1610 416 c0 -12 -3 -51 -6 -85 l-7 -61 31 0 c34 0 35 2 46 118 l5
52 -34 0 c-30 0 -35 -3 -35 -24z"/>
<path d="M1784 403 c3 -21 6 -59 6 -85 l0 -48 35 0 35 0 -6 73 c-8 95 -8 97
-45 97 -31 0 -31 -1 -25 -37z"/>
<path fill="#DE0012" d="M135 392 c-44 -28 -123 -116 -131 -146 -15 -62 58 -166 149 -213 129
-65 289 -23 377 99 43 59 37 65 -18 18 -75 -62 -158 -77 -237 -41 -38 17 -195
155 -195 170 0 4 17 13 37 19 33 10 40 9 60 -10 l22 -21 56 48 57 48 -21 20
c-29 29 -116 34 -156 9z"/>
<path  d="M750 360 c0 -5 -22 -10 -50 -10 -27 0 -50 -4 -50 -10 0 -5 23 -10 50
-10 l50 0 0 -36 c0 -34 1 -35 33 -32 28 3 32 7 35 36 3 31 5 32 48 32 24 0 44
5 44 10 0 6 -20 10 -45 10 -25 0 -45 5 -45 10 0 6 -16 10 -35 10 -19 0 -35 -4
-35 -10z"/>
<path d="M660 124 c0 -48 3 -65 13 -62 6 3 13 14 15 26 5 32 59 32 64 0 2 -12
9 -23 16 -26 9 -3 12 14 12 62 0 52 -3 66 -15 66 -9 0 -15 -9 -15 -25 0 -21
-5 -25 -30 -25 -25 0 -30 4 -30 25 0 16 -6 25 -15 25 -12 0 -15 -14 -15 -66z"/>
<path d="M897 183 c-14 -13 -7 -92 9 -107 9 -9 32 -16 54 -16 47 0 63 21 58
82 -4 60 -26 61 -30 1 -3 -46 -4 -48 -33 -48 -29 0 -30 2 -33 48 -3 44 -10 56
-25 40z"/>
<path fill="#DE0012" d="M1151 148 c-31 -73 -34 -88 -18 -88 8 0 17 7 21 15 7 20 62 20 70 0
3 -8 12 -15 21 -15 19 0 19 -4 -9 66 -32 78 -58 85 -85 22z m59 -30 c0 -4 -9
-8 -21 -8 -15 0 -19 4 -15 16 3 9 6 21 6 27 1 13 30 -22 30 -35z"/>
<path d="M1360 175 c0 -10 10 -15 32 -15 l32 0 -32 -33 c-18 -18 -32 -41 -32
-50 0 -15 8 -18 57 -15 65 3 89 28 27 28 l-38 0 32 33 c49 51 43 67 -23 67
-42 0 -55 -3 -55 -15z"/>
<path d="M1584 176 c-9 -25 1 -109 14 -114 7 -2 12 6 12 22 0 23 4 26 35 26
31 0 35 -3 35 -25 0 -16 6 -25 15 -25 12 0 15 14 15 65 0 51 -3 65 -15 65 -9
0 -15 -10 -15 -26 0 -23 -3 -25 -32 -22 -25 2 -34 8 -36 26 -4 25 -20 30 -28
8z"/>
<path fill="#DE0012" d="M1820 125 c0 -51 3 -65 15 -65 12 0 15 14 15 65 0 51 -3 65 -15 65
-12 0 -15 -14 -15 -65z"/>
</g>
</svg>