<?xml version="1.0" standalone="no"?>
<!DOCTYPE svg PUBLIC "-//W3C//DTD SVG 20010904//EN"
 "http://www.w3.org/TR/2001/REC-SVG-20010904/DTD/svg10.dtd">
<svg version="1.0" xmlns="http://www.w3.org/2000/svg"
 width="64" height="64" viewBox="0 0 186.000000 60.000000"
 preserveAspectRatio="xMidYMid meet">

<g transform="translate(55,70) scale(0.15,-0.15)"
fill="#000000" stroke="none">
<path fill="#DE0012" d="M191 584 c-68 -24 -116 -61 -155 -118 -48 -68 -45 -79 6 -29 50 49
102 73 155 73 76 0 112 -18 199 -102 46 -44 84 -84 84 -88 0 -4 -16 -11 -35
-17 -30 -10 -38 -8 -61 9 l-26 21 -49 -49 c-27 -26 -49 -52 -49 -56 0 -16 61
-38 104 -38 52 0 109 38 163 109 43 56 44 100 3 164 -70 111 -217 163 -339
121z"/>
<path fill="#DE0012" d="M135 392 c-44 -28 -123 -116 -131 -146 -15 -62 58 -166 149 -213 129
-65 289 -23 377 99 43 59 37 65 -18 18 -75 -62 -158 -77 -237 -41 -38 17 -195
155 -195 170 0 4 17 13 37 19 33 10 40 9 60 -10 l22 -21 56 48 57 48 -21 20
c-29 29 -116 34 -156 9z"/>
</g>
</svg>